<svg width="25" height="24" viewBox="0 0 25 24" fill="none" xmlns="http://www.w3.org/2000/svg">
<path d="M15.5 4.5H9.5L7.27813 1.16719C6.94531 0.665625 7.30156 0 7.90156 0H17.0984C17.6984 0 18.0547 0.665625 17.7219 1.16719L15.5 4.5ZM9.5 6H15.5C15.6781 6.11719 15.8797 6.24844 16.1094 6.39375C18.7672 8.09531 24.5 11.7609 24.5 19.5C24.5 21.9844 22.4844 24 20 24H5C2.51562 24 0.5 21.9844 0.5 19.5C0.5 11.7609 6.23281 8.09531 8.89062 6.39375C9.11563 6.24844 9.32187 6.11719 9.5 6ZM13.4375 10.125C13.4375 9.60938 13.0156 9.1875 12.5 9.1875C11.9844 9.1875 11.5625 9.60938 11.5625 10.125V10.7812C11.2063 10.8609 10.85 10.9875 10.5219 11.1797C9.87031 11.5688 9.30781 12.2484 9.3125 13.2375C9.31719 14.1891 9.875 14.7891 10.4703 15.1453C10.9859 15.4547 11.6281 15.6516 12.1391 15.8016L12.2188 15.825C12.8094 16.0031 13.2406 16.1437 13.5312 16.3266C13.7703 16.4766 13.8031 16.5797 13.8078 16.7109C13.8125 16.9453 13.7234 17.0859 13.5312 17.2031C13.2969 17.3484 12.9266 17.4375 12.5281 17.4234C12.0078 17.4047 11.5203 17.2406 10.8828 17.025C10.775 16.9875 10.6625 16.95 10.5453 16.9125C10.0531 16.7484 9.52344 17.0156 9.35938 17.5031C9.19531 17.9906 9.4625 18.525 9.95 18.6891C10.0391 18.7172 10.1375 18.75 10.2359 18.7875C10.625 18.9234 11.075 19.0781 11.5578 19.1813V19.875C11.5578 20.3906 11.9797 20.8125 12.4953 20.8125C13.0109 20.8125 13.4328 20.3906 13.4328 19.875V19.2281C13.8078 19.1484 14.1828 19.0172 14.5203 18.8063C15.1906 18.3891 15.6969 17.6766 15.6828 16.6969C15.6687 15.7453 15.1344 15.1313 14.5297 14.7469C13.9906 14.4094 13.3156 14.2031 12.7906 14.0438L12.7578 14.0344C12.1578 13.8516 11.7312 13.7203 11.4312 13.5422C11.1875 13.3969 11.1828 13.3125 11.1828 13.2281C11.1828 13.0547 11.2484 12.9234 11.4734 12.7922C11.7266 12.6422 12.1109 12.5531 12.4813 12.5578C12.9313 12.5625 13.4281 12.6609 13.9437 12.8016C14.4453 12.9328 14.9562 12.6375 15.0922 12.1359C15.2281 11.6344 14.9281 11.1234 14.4266 10.9875C14.1219 10.9078 13.7844 10.8281 13.4375 10.7672V10.125Z" fill="#A49561"/>
</svg>
