<svg width="16" height="28" viewBox="0 0 16 28" fill="none" xmlns="http://www.w3.org/2000/svg">
<path fill-rule="evenodd" clip-rule="evenodd" d="M0.586047 12.586C0.211105 12.961 0.000473976 13.4697 0.000473976 14C0.000473976 14.5303 0.211105 15.0389 0.586047 15.414L11.9 26.728C12.0845 26.919 12.3052 27.0714 12.5492 27.1762C12.7932 27.281 13.0557 27.3362 13.3212 27.3385C13.5868 27.3408 13.8502 27.2902 14.096 27.1896C14.3417 27.0891 14.5651 26.9406 14.7528 26.7528C14.9406 26.565 15.0891 26.3417 15.1897 26.0959C15.2903 25.8501 15.3409 25.5867 15.3385 25.3212C15.3362 25.0556 15.2811 24.7932 15.1762 24.5492C15.0714 24.3052 14.9191 24.0845 14.728 23.9L4.82805 14L14.728 4.09998C15.0924 3.72278 15.294 3.21758 15.2894 2.69318C15.2848 2.16879 15.0745 1.66716 14.7037 1.29635C14.3329 0.925533 13.8312 0.715193 13.3068 0.710636C12.7825 0.706079 12.2773 0.907667 11.9 1.27198L0.586047 12.586Z" fill="#A49561"/>
</svg>
