<svg width="20" height="16" viewBox="0 0 20 16" fill="none" xmlns="http://www.w3.org/2000/svg">
<path d="M0.400024 3.19999C0.400024 2.56347 0.652881 1.95302 1.10297 1.50293C1.55306 1.05284 2.1635 0.799988 2.80002 0.799988H10C10.6365 0.799988 11.247 1.05284 11.6971 1.50293C12.1472 1.95302 12.4 2.56347 12.4 3.19999V12.8C12.4 13.4365 12.1472 14.047 11.6971 14.497C11.247 14.9471 10.6365 15.2 10 15.2H2.80002C2.1635 15.2 1.55306 14.9471 1.10297 14.497C0.652881 14.047 0.400024 13.4365 0.400024 12.8V3.19999ZM15.4636 4.52719C15.2643 4.62678 15.0967 4.77988 14.9795 4.96936C14.8623 5.15883 14.8001 5.37719 14.8 5.59999V10.4C14.8001 10.6228 14.8623 10.8411 14.9795 11.0306C15.0967 11.2201 15.2643 11.3732 15.4636 11.4728L17.8636 12.6728C18.0465 12.7642 18.2498 12.8073 18.454 12.7981C18.6583 12.7889 18.8568 12.7277 19.0308 12.6202C19.2047 12.5128 19.3483 12.3626 19.4479 12.1841C19.5476 12.0055 19.5999 11.8045 19.6 11.6V4.39999C19.5999 4.19552 19.5476 3.99447 19.4479 3.81591C19.3483 3.63736 19.2047 3.48722 19.0308 3.37975C18.8568 3.27228 18.6583 3.21104 18.454 3.20184C18.2498 3.19264 18.0465 3.23579 17.8636 3.32719L15.4636 4.52719Z" fill="#A49561"/>
</svg>
