<svg width="88" height="88" viewBox="0 0 88 88" fill="none" xmlns="http://www.w3.org/2000/svg">
<path d="M44 77C62.2254 77 77 62.2254 77 44C77 25.7746 62.2254 11 44 11C25.7746 11 11 25.7746 11 44C11 62.2254 25.7746 77 44 77Z" fill="#88E978" fill-opacity="0.28"/>
<path d="M33 36.6666L44.946 45.6279C45.6861 46.183 46.6086 46.4378 47.5287 46.3412C48.4487 46.2446 49.2983 45.8039 49.907 45.1073L73.3333 18.3333" fill="#88E978" fill-opacity="0.28"/>
<path d="M33 36.6666L44.946 45.6279C45.6861 46.183 46.6086 46.4378 47.5287 46.3412C48.4487 46.2446 49.2983 45.8039 49.907 45.1073L73.3333 18.3333" stroke="#31C449" stroke-width="4" stroke-linecap="round"/>
<path d="M77 43.9996C77.0001 50.8949 74.8404 57.617 70.8241 63.2218C66.8078 68.8266 61.1367 73.0326 54.6074 75.249C48.078 77.4654 41.0184 77.5808 34.4201 75.5791C27.8218 73.5774 22.0162 69.5592 17.8188 64.0887C13.6214 58.6182 11.243 51.9703 11.0176 45.0787C10.7923 38.1871 12.7313 31.3981 16.5624 25.6651C20.3935 19.9321 25.9242 15.5431 32.3776 13.1146C38.8311 10.6862 45.8832 10.3402 52.5433 12.1253" fill="#88E978" fill-opacity="0.28"/>
<path d="M77 43.9997C77.0001 50.8949 74.8404 57.617 70.8241 63.2218C66.8078 68.8266 61.1367 73.0326 54.6074 75.249C48.078 77.4654 41.0184 77.5808 34.4201 75.5791C27.8218 73.5774 22.0162 69.5592 17.8188 64.0887C13.6214 58.6182 11.243 51.9703 11.0176 45.0787C10.7923 38.1871 12.7313 31.3981 16.5624 25.6651C20.3935 19.9321 25.9242 15.5431 32.3776 13.1146C38.8311 10.6862 45.8832 10.3402 52.5433 12.1253" stroke="#31C449" stroke-width="4" stroke-linecap="round"/>
</svg>
