<svg width="28" height="23" viewBox="0 0 28 23" fill="none" xmlns="http://www.w3.org/2000/svg">
<path d="M15.3333 0H20.6666V2.66667H15.3333V0ZM1.99996 6.66667H7.33329V9.33333H1.99996V6.66667ZM1.99996 17.3333H7.33329V20H1.99996V17.3333ZM0.666626 12H5.98663V14.6667H0.666626V12ZM26.9426 4.94267L25.0573 3.05733L22.7813 5.33333C21.3388 4.46154 19.6855 4.00049 18 4C12.8546 4 8.66663 8.188 8.66663 13.3333C8.66663 18.4787 12.8546 22.6667 18 22.6667C23.1453 22.6667 27.3333 18.4787 27.3333 13.3333C27.332 10.9947 26.4488 8.74268 24.86 7.02667L26.9426 4.94267ZM19.3333 14.6667H16.6666V7.944H19.3333V14.6667Z" fill="#A49561"/>
</svg>
